<svg width="50" height="50" viewBox="0 0 50 50" fill="none" xmlns="http://www.w3.org/2000/svg">
<path d="M29.9385 4.15234C30.7665 4.15278 31.4385 4.82419 31.4385 5.65234C31.4384 6.4804 30.7665 7.1519 29.9385 7.15234H12.7344C10.7445 7.15234 9.33954 7.15382 8.2422 7.24121C7.16129 7.32733 6.50866 7.49001 6.00099 7.74219C4.959 8.25997 4.11885 9.08291 3.59474 10.0859C3.34284 10.5682 3.17845 11.1899 3.09083 12.2354C3.00164 13.2999 3.00001 14.6648 3.00001 16.6074V45.2168C3.00001 45.5062 3.00036 45.7415 3.00294 45.9355C3.16845 45.8105 3.36903 45.6551 3.61915 45.46L9.20313 41.1045C10.2972 40.2511 11.0017 39.6929 11.8027 39.2939L12.0605 39.1709C12.6668 38.8936 13.3045 38.6868 13.96 38.5557C14.8378 38.3799 15.742 38.3867 17.1436 38.3867H32.3955C34.3857 38.3867 35.7913 38.3853 36.8887 38.2979C37.9692 38.2117 38.6212 38.0491 39.1289 37.7969C40.1708 37.2792 41.0111 36.457 41.5352 35.4541C41.7872 34.9717 41.9524 34.3494 42.04 33.3037C42.1292 32.2392 42.1309 30.8742 42.1309 28.9316V20.3984C42.1309 19.57 42.8024 18.8984 43.6309 18.8984C44.4589 18.8989 45.1309 19.5703 45.1309 20.3984V28.9316C45.1309 30.8233 45.1314 32.3349 45.0293 33.5537C44.9256 34.7912 44.7076 35.8605 44.1943 36.8428C43.3723 38.4163 42.0641 39.6884 40.4639 40.4834C39.4696 40.9773 38.3874 41.1886 37.127 41.2891C35.8828 41.3882 34.3375 41.3867 32.3955 41.3867H17.1436C15.8146 41.3867 15.222 41.392 14.7471 41.4629L14.5488 41.4971C14.0587 41.5952 13.5848 41.7582 13.1406 41.9795C12.6716 42.2131 12.2347 42.544 11.0479 43.4697L5.46485 47.8252C5.00134 48.1867 4.57307 48.5234 4.20802 48.7588C3.86399 48.9805 3.33067 49.2825 2.67286 49.2832C1.87432 49.284 1.1072 48.9294 0.594741 48.3037C0.168925 47.7835 0.0757125 47.1672 0.0381004 46.7637C-0.00188802 46.3344 1.39986e-05 45.7941 1.44625e-05 45.2168V16.6074C1.44625e-05 14.7157 -0.00149119 13.2042 0.1006 11.9854C0.204284 10.7479 0.422367 9.67853 0.935561 8.69629C1.75774 7.1228 3.06669 5.85074 4.667 5.05566C5.66122 4.5618 6.74338 4.35043 8.00392 4.25C9.24803 4.15092 10.7927 4.15234 12.7344 4.15234H29.9385ZM29.5869 24.6934C30.4152 24.6936 31.0869 25.3651 31.0869 26.1934C31.0866 27.0214 30.415 27.6932 29.5869 27.6934H10.8623C10.0341 27.6933 9.36261 27.0215 9.36231 26.1934C9.36231 25.3649 10.0339 24.6934 10.8623 24.6934H29.5869ZM22.5654 16.7051C23.3936 16.7054 24.0654 17.3769 24.0654 18.2051C24.0653 19.0332 23.3935 19.7048 22.5654 19.7051H10.8623C10.034 19.7051 9.36248 19.0334 9.36231 18.2051C9.36231 17.3767 10.0339 16.7051 10.8623 16.7051H22.5654Z" fill="currentColor"/>
<path d="M39.9022 2.02823C40.1599 1.33174 41.145 1.33174 41.4027 2.02823L42.9556 6.22482C43.0366 6.4438 43.2093 6.61644 43.4283 6.69747L47.6248 8.25035C48.3213 8.50808 48.3213 9.49318 47.6248 9.75091L43.4283 11.3038C43.2093 11.3848 43.0366 11.5574 42.9556 11.7764L41.4027 15.973C41.145 16.6695 40.1599 16.6695 39.9022 15.973L38.3493 11.7764C38.2683 11.5574 38.0956 11.3848 37.8766 11.3038L33.68 9.75091C32.9836 9.49318 32.9836 8.50808 33.68 8.25035L37.8766 6.69747C38.0956 6.61644 38.2683 6.4438 38.3493 6.22482L39.9022 2.02823Z" fill="currentColor"/>
</svg>
