<svg width="45" height="45" viewBox="0 0 45 45" fill="none" xmlns="http://www.w3.org/2000/svg">
<path d="M41.25 22.5H36.6C35.7806 22.4982 34.9831 22.7649 34.3296 23.2593C33.6761 23.7537 33.2025 24.4485 32.9813 25.2375L28.575 40.9125C28.5466 41.0099 28.4874 41.0954 28.4062 41.1563C28.3251 41.2171 28.2264 41.25 28.125 41.25C28.0236 41.25 27.9249 41.2171 27.8438 41.1563C27.7626 41.0954 27.7034 41.0099 27.675 40.9125L17.325 4.0875C17.2966 3.99013 17.2374 3.9046 17.1562 3.84375C17.0751 3.7829 16.9764 3.75 16.875 3.75C16.7736 3.75 16.6749 3.7829 16.5938 3.84375C16.5126 3.9046 16.4534 3.99013 16.425 4.0875L12.0187 19.7625C11.7984 20.5484 11.3276 21.241 10.6779 21.735C10.0282 22.2291 9.23497 22.4977 8.41875 22.5H3.75" stroke="black" stroke-width="2.5" stroke-linecap="round" stroke-linejoin="round"/>
</svg>
